<svg xmlns="http://www.w3.org/2000/svg" xml:space="preserve" xmlns:xlink="http://www.w3.org/1999/xlink" style="max-width: 100%;height: auto;" width="990" height="990" viewBox="0 0 990 990">
<defs><mask id="qrmask"><g fill="#ffffff"><g>
<g transform="translate(220,44) scale(3.7766666666667)"><circle cx="3" cy="3" r="3"></circle></g>
<g transform="translate(286,44) scale(3.7766666666667)"><circle cx="3" cy="3" r="3"></circle></g>
<g transform="translate(308,44) scale(3.7766666666667)"><circle cx="3" cy="3" r="3"></circle></g>
<g transform="translate(330,44) scale(3.7766666666667)"><circle cx="3" cy="3" r="3"></circle></g>
<g transform="translate(418,44) scale(3.7766666666667)"><circle cx="3" cy="3" r="3"></circle></g>
<g transform="translate(440,44) scale(3.7766666666667)"><circle cx="3" cy="3" r="3"></circle></g>
<g transform="translate(484,44) scale(3.7766666666667)"><circle cx="3" cy="3" r="3"></circle></g>
<g transform="translate(550,44) scale(3.7766666666667)"><circle cx="3" cy="3" r="3"></circle></g>
<g transform="translate(594,44) scale(3.7766666666667)"><circle cx="3" cy="3" r="3"></circle></g>
<g transform="translate(660,44) scale(3.7766666666667)"><circle cx="3" cy="3" r="3"></circle></g>
<g transform="translate(726,44) scale(3.7766666666667)"><circle cx="3" cy="3" r="3"></circle></g>
<g transform="translate(748,44) scale(3.7766666666667)"><circle cx="3" cy="3" r="3"></circle></g>
<g transform="translate(220,66) scale(3.7766666666667)"><circle cx="3" cy="3" r="3"></circle></g>
<g transform="translate(242,66) scale(3.7766666666667)"><circle cx="3" cy="3" r="3"></circle></g>
<g transform="translate(264,66) scale(3.7766666666667)"><circle cx="3" cy="3" r="3"></circle></g>
<g transform="translate(374,66) scale(3.7766666666667)"><circle cx="3" cy="3" r="3"></circle></g>
<g transform="translate(440,66) scale(3.7766666666667)"><circle cx="3" cy="3" r="3"></circle></g>
<g transform="translate(462,66) scale(3.7766666666667)"><circle cx="3" cy="3" r="3"></circle></g>
<g transform="translate(484,66) scale(3.7766666666667)"><circle cx="3" cy="3" r="3"></circle></g>
<g transform="translate(528,66) scale(3.7766666666667)"><circle cx="3" cy="3" r="3"></circle></g>
<g transform="translate(594,66) scale(3.7766666666667)"><circle cx="3" cy="3" r="3"></circle></g>
<g transform="translate(616,66) scale(3.7766666666667)"><circle cx="3" cy="3" r="3"></circle></g>
<g transform="translate(638,66) scale(3.7766666666667)"><circle cx="3" cy="3" r="3"></circle></g>
<g transform="translate(704,66) scale(3.7766666666667)"><circle cx="3" cy="3" r="3"></circle></g>
<g transform="translate(748,66) scale(3.7766666666667)"><circle cx="3" cy="3" r="3"></circle></g>
<g transform="translate(220,88) scale(3.7766666666667)"><circle cx="3" cy="3" r="3"></circle></g>
<g transform="translate(308,88) scale(3.7766666666667)"><circle cx="3" cy="3" r="3"></circle></g>
<g transform="translate(352,88) scale(3.7766666666667)"><circle cx="3" cy="3" r="3"></circle></g>
<g transform="translate(374,88) scale(3.7766666666667)"><circle cx="3" cy="3" r="3"></circle></g>
<g transform="translate(418,88) scale(3.7766666666667)"><circle cx="3" cy="3" r="3"></circle></g>
<g transform="translate(440,88) scale(3.7766666666667)"><circle cx="3" cy="3" r="3"></circle></g>
<g transform="translate(484,88) scale(3.7766666666667)"><circle cx="3" cy="3" r="3"></circle></g>
<g transform="translate(506,88) scale(3.7766666666667)"><circle cx="3" cy="3" r="3"></circle></g>
<g transform="translate(550,88) scale(3.7766666666667)"><circle cx="3" cy="3" r="3"></circle></g>
<g transform="translate(572,88) scale(3.7766666666667)"><circle cx="3" cy="3" r="3"></circle></g>
<g transform="translate(594,88) scale(3.7766666666667)"><circle cx="3" cy="3" r="3"></circle></g>
<g transform="translate(660,88) scale(3.7766666666667)"><circle cx="3" cy="3" r="3"></circle></g>
<g transform="translate(748,88) scale(3.7766666666667)"><circle cx="3" cy="3" r="3"></circle></g>
<g transform="translate(264,110) scale(3.7766666666667)"><circle cx="3" cy="3" r="3"></circle></g>
<g transform="translate(330,110) scale(3.7766666666667)"><circle cx="3" cy="3" r="3"></circle></g>
<g transform="translate(352,110) scale(3.7766666666667)"><circle cx="3" cy="3" r="3"></circle></g>
<g transform="translate(374,110) scale(3.7766666666667)"><circle cx="3" cy="3" r="3"></circle></g>
<g transform="translate(462,110) scale(3.7766666666667)"><circle cx="3" cy="3" r="3"></circle></g>
<g transform="translate(550,110) scale(3.7766666666667)"><circle cx="3" cy="3" r="3"></circle></g>
<g transform="translate(616,110) scale(3.7766666666667)"><circle cx="3" cy="3" r="3"></circle></g>
<g transform="translate(704,110) scale(3.7766666666667)"><circle cx="3" cy="3" r="3"></circle></g>
<g transform="translate(242,132) scale(3.7766666666667)"><circle cx="3" cy="3" r="3"></circle></g>
<g transform="translate(286,132) scale(3.7766666666667)"><circle cx="3" cy="3" r="3"></circle></g>
<g transform="translate(352,132) scale(3.7766666666667)"><circle cx="3" cy="3" r="3"></circle></g>
<g transform="translate(374,132) scale(3.7766666666667)"><circle cx="3" cy="3" r="3"></circle></g>
<g transform="translate(528,132) scale(3.7766666666667)"><circle cx="3" cy="3" r="3"></circle></g>
<g transform="translate(550,132) scale(3.7766666666667)"><circle cx="3" cy="3" r="3"></circle></g>
<g transform="translate(572,132) scale(3.7766666666667)"><circle cx="3" cy="3" r="3"></circle></g>
<g transform="translate(594,132) scale(3.7766666666667)"><circle cx="3" cy="3" r="3"></circle></g>
<g transform="translate(660,132) scale(3.7766666666667)"><circle cx="3" cy="3" r="3"></circle></g>
<g transform="translate(682,132) scale(3.7766666666667)"><circle cx="3" cy="3" r="3"></circle></g>
<g transform="translate(726,132) scale(3.7766666666667)"><circle cx="3" cy="3" r="3"></circle></g>
<g transform="translate(748,132) scale(3.7766666666667)"><circle cx="3" cy="3" r="3"></circle></g>
<g transform="translate(220,154) scale(3.7766666666667)"><circle cx="3" cy="3" r="3"></circle></g>
<g transform="translate(286,154) scale(3.7766666666667)"><circle cx="3" cy="3" r="3"></circle></g>
<g transform="translate(330,154) scale(3.7766666666667)"><circle cx="3" cy="3" r="3"></circle></g>
<g transform="translate(396,154) scale(3.7766666666667)"><circle cx="3" cy="3" r="3"></circle></g>
<g transform="translate(484,154) scale(3.7766666666667)"><circle cx="3" cy="3" r="3"></circle></g>
<g transform="translate(506,154) scale(3.7766666666667)"><circle cx="3" cy="3" r="3"></circle></g>
<g transform="translate(528,154) scale(3.7766666666667)"><circle cx="3" cy="3" r="3"></circle></g>
<g transform="translate(550,154) scale(3.7766666666667)"><circle cx="3" cy="3" r="3"></circle></g>
<g transform="translate(594,154) scale(3.7766666666667)"><circle cx="3" cy="3" r="3"></circle></g>
<g transform="translate(638,154) scale(3.7766666666667)"><circle cx="3" cy="3" r="3"></circle></g>
<g transform="translate(660,154) scale(3.7766666666667)"><circle cx="3" cy="3" r="3"></circle></g>
<g transform="translate(220,176) scale(3.7766666666667)"><circle cx="3" cy="3" r="3"></circle></g>
<g transform="translate(264,176) scale(3.7766666666667)"><circle cx="3" cy="3" r="3"></circle></g>
<g transform="translate(308,176) scale(3.7766666666667)"><circle cx="3" cy="3" r="3"></circle></g>
<g transform="translate(352,176) scale(3.7766666666667)"><circle cx="3" cy="3" r="3"></circle></g>
<g transform="translate(396,176) scale(3.7766666666667)"><circle cx="3" cy="3" r="3"></circle></g>
<g transform="translate(440,176) scale(3.7766666666667)"><circle cx="3" cy="3" r="3"></circle></g>
<g transform="translate(484,176) scale(3.7766666666667)"><circle cx="3" cy="3" r="3"></circle></g>
<g transform="translate(528,176) scale(3.7766666666667)"><circle cx="3" cy="3" r="3"></circle></g>
<g transform="translate(572,176) scale(3.7766666666667)"><circle cx="3" cy="3" r="3"></circle></g>
<g transform="translate(616,176) scale(3.7766666666667)"><circle cx="3" cy="3" r="3"></circle></g>
<g transform="translate(660,176) scale(3.7766666666667)"><circle cx="3" cy="3" r="3"></circle></g>
<g transform="translate(704,176) scale(3.7766666666667)"><circle cx="3" cy="3" r="3"></circle></g>
<g transform="translate(748,176) scale(3.7766666666667)"><circle cx="3" cy="3" r="3"></circle></g>
<g transform="translate(220,198) scale(3.7766666666667)"><circle cx="3" cy="3" r="3"></circle></g>
<g transform="translate(264,198) scale(3.7766666666667)"><circle cx="3" cy="3" r="3"></circle></g>
<g transform="translate(286,198) scale(3.7766666666667)"><circle cx="3" cy="3" r="3"></circle></g>
<g transform="translate(308,198) scale(3.7766666666667)"><circle cx="3" cy="3" r="3"></circle></g>
<g transform="translate(330,198) scale(3.7766666666667)"><circle cx="3" cy="3" r="3"></circle></g>
<g transform="translate(374,198) scale(3.7766666666667)"><circle cx="3" cy="3" r="3"></circle></g>
<g transform="translate(418,198) scale(3.7766666666667)"><circle cx="3" cy="3" r="3"></circle></g>
<g transform="translate(440,198) scale(3.7766666666667)"><circle cx="3" cy="3" r="3"></circle></g>
<g transform="translate(484,198) scale(3.7766666666667)"><circle cx="3" cy="3" r="3"></circle></g>
<g transform="translate(550,198) scale(3.7766666666667)"><circle cx="3" cy="3" r="3"></circle></g>
<g transform="translate(572,198) scale(3.7766666666667)"><circle cx="3" cy="3" r="3"></circle></g>
<g transform="translate(616,198) scale(3.7766666666667)"><circle cx="3" cy="3" r="3"></circle></g>
<g transform="translate(638,198) scale(3.7766666666667)"><circle cx="3" cy="3" r="3"></circle></g>
<g transform="translate(660,198) scale(3.7766666666667)"><circle cx="3" cy="3" r="3"></circle></g>
<g transform="translate(704,198) scale(3.7766666666667)"><circle cx="3" cy="3" r="3"></circle></g>
<g transform="translate(88,220) scale(3.7766666666667)"><circle cx="3" cy="3" r="3"></circle></g>
<g transform="translate(110,220) scale(3.7766666666667)"><circle cx="3" cy="3" r="3"></circle></g>
<g transform="translate(132,220) scale(3.7766666666667)"><circle cx="3" cy="3" r="3"></circle></g>
<g transform="translate(176,220) scale(3.7766666666667)"><circle cx="3" cy="3" r="3"></circle></g>
<g transform="translate(220,220) scale(3.7766666666667)"><circle cx="3" cy="3" r="3"></circle></g>
<g transform="translate(330,220) scale(3.7766666666667)"><circle cx="3" cy="3" r="3"></circle></g>
<g transform="translate(352,220) scale(3.7766666666667)"><circle cx="3" cy="3" r="3"></circle></g>
<g transform="translate(396,220) scale(3.7766666666667)"><circle cx="3" cy="3" r="3"></circle></g>
<g transform="translate(418,220) scale(3.7766666666667)"><circle cx="3" cy="3" r="3"></circle></g>
<g transform="translate(528,220) scale(3.7766666666667)"><circle cx="3" cy="3" r="3"></circle></g>
<g transform="translate(616,220) scale(3.7766666666667)"><circle cx="3" cy="3" r="3"></circle></g>
<g transform="translate(660,220) scale(3.7766666666667)"><circle cx="3" cy="3" r="3"></circle></g>
<g transform="translate(682,220) scale(3.7766666666667)"><circle cx="3" cy="3" r="3"></circle></g>
<g transform="translate(770,220) scale(3.7766666666667)"><circle cx="3" cy="3" r="3"></circle></g>
<g transform="translate(792,220) scale(3.7766666666667)"><circle cx="3" cy="3" r="3"></circle></g>
<g transform="translate(814,220) scale(3.7766666666667)"><circle cx="3" cy="3" r="3"></circle></g>
<g transform="translate(880,220) scale(3.7766666666667)"><circle cx="3" cy="3" r="3"></circle></g>
<g transform="translate(902,220) scale(3.7766666666667)"><circle cx="3" cy="3" r="3"></circle></g>
<g transform="translate(924,220) scale(3.7766666666667)"><circle cx="3" cy="3" r="3"></circle></g>
<g transform="translate(44,242) scale(3.7766666666667)"><circle cx="3" cy="3" r="3"></circle></g>
<g transform="translate(66,242) scale(3.7766666666667)"><circle cx="3" cy="3" r="3"></circle></g>
<g transform="translate(110,242) scale(3.7766666666667)"><circle cx="3" cy="3" r="3"></circle></g>
<g transform="translate(154,242) scale(3.7766666666667)"><circle cx="3" cy="3" r="3"></circle></g>
<g transform="translate(220,242) scale(3.7766666666667)"><circle cx="3" cy="3" r="3"></circle></g>
<g transform="translate(242,242) scale(3.7766666666667)"><circle cx="3" cy="3" r="3"></circle></g>
<g transform="translate(264,242) scale(3.7766666666667)"><circle cx="3" cy="3" r="3"></circle></g>
<g transform="translate(308,242) scale(3.7766666666667)"><circle cx="3" cy="3" r="3"></circle></g>
<g transform="translate(330,242) scale(3.7766666666667)"><circle cx="3" cy="3" r="3"></circle></g>
<g transform="translate(352,242) scale(3.7766666666667)"><circle cx="3" cy="3" r="3"></circle></g>
<g transform="translate(396,242) scale(3.7766666666667)"><circle cx="3" cy="3" r="3"></circle></g>
<g transform="translate(440,242) scale(3.7766666666667)"><circle cx="3" cy="3" r="3"></circle></g>
<g transform="translate(484,242) scale(3.7766666666667)"><circle cx="3" cy="3" r="3"></circle></g>
<g transform="translate(506,242) scale(3.7766666666667)"><circle cx="3" cy="3" r="3"></circle></g>
<g transform="translate(528,242) scale(3.7766666666667)"><circle cx="3" cy="3" r="3"></circle></g>
<g transform="translate(572,242) scale(3.7766666666667)"><circle cx="3" cy="3" r="3"></circle></g>
<g transform="translate(594,242) scale(3.7766666666667)"><circle cx="3" cy="3" r="3"></circle></g>
<g transform="translate(616,242) scale(3.7766666666667)"><circle cx="3" cy="3" r="3"></circle></g>
<g transform="translate(660,242) scale(3.7766666666667)"><circle cx="3" cy="3" r="3"></circle></g>
<g transform="translate(704,242) scale(3.7766666666667)"><circle cx="3" cy="3" r="3"></circle></g>
<g transform="translate(726,242) scale(3.7766666666667)"><circle cx="3" cy="3" r="3"></circle></g>
<g transform="translate(748,242) scale(3.7766666666667)"><circle cx="3" cy="3" r="3"></circle></g>
<g transform="translate(792,242) scale(3.7766666666667)"><circle cx="3" cy="3" r="3"></circle></g>
<g transform="translate(814,242) scale(3.7766666666667)"><circle cx="3" cy="3" r="3"></circle></g>
<g transform="translate(836,242) scale(3.7766666666667)"><circle cx="3" cy="3" r="3"></circle></g>
<g transform="translate(880,242) scale(3.7766666666667)"><circle cx="3" cy="3" r="3"></circle></g>
<g transform="translate(924,242) scale(3.7766666666667)"><circle cx="3" cy="3" r="3"></circle></g>
<g transform="translate(44,264) scale(3.7766666666667)"><circle cx="3" cy="3" r="3"></circle></g>
<g transform="translate(66,264) scale(3.7766666666667)"><circle cx="3" cy="3" r="3"></circle></g>
<g transform="translate(110,264) scale(3.7766666666667)"><circle cx="3" cy="3" r="3"></circle></g>
<g transform="translate(132,264) scale(3.7766666666667)"><circle cx="3" cy="3" r="3"></circle></g>
<g transform="translate(154,264) scale(3.7766666666667)"><circle cx="3" cy="3" r="3"></circle></g>
<g transform="translate(176,264) scale(3.7766666666667)"><circle cx="3" cy="3" r="3"></circle></g>
<g transform="translate(198,264) scale(3.7766666666667)"><circle cx="3" cy="3" r="3"></circle></g>
<g transform="translate(242,264) scale(3.7766666666667)"><circle cx="3" cy="3" r="3"></circle></g>
<g transform="translate(286,264) scale(3.7766666666667)"><circle cx="3" cy="3" r="3"></circle></g>
<g transform="translate(374,264) scale(3.7766666666667)"><circle cx="3" cy="3" r="3"></circle></g>
<g transform="translate(396,264) scale(3.7766666666667)"><circle cx="3" cy="3" r="3"></circle></g>
<g transform="translate(418,264) scale(3.7766666666667)"><circle cx="3" cy="3" r="3"></circle></g>
<g transform="translate(440,264) scale(3.7766666666667)"><circle cx="3" cy="3" r="3"></circle></g>
<g transform="translate(484,264) scale(3.7766666666667)"><circle cx="3" cy="3" r="3"></circle></g>
<g transform="translate(506,264) scale(3.7766666666667)"><circle cx="3" cy="3" r="3"></circle></g>
<g transform="translate(550,264) scale(3.7766666666667)"><circle cx="3" cy="3" r="3"></circle></g>
<g transform="translate(594,264) scale(3.7766666666667)"><circle cx="3" cy="3" r="3"></circle></g>
<g transform="translate(616,264) scale(3.7766666666667)"><circle cx="3" cy="3" r="3"></circle></g>
<g transform="translate(638,264) scale(3.7766666666667)"><circle cx="3" cy="3" r="3"></circle></g>
<g transform="translate(660,264) scale(3.7766666666667)"><circle cx="3" cy="3" r="3"></circle></g>
<g transform="translate(704,264) scale(3.7766666666667)"><circle cx="3" cy="3" r="3"></circle></g>
<g transform="translate(748,264) scale(3.7766666666667)"><circle cx="3" cy="3" r="3"></circle></g>
<g transform="translate(770,264) scale(3.7766666666667)"><circle cx="3" cy="3" r="3"></circle></g>
<g transform="translate(814,264) scale(3.7766666666667)"><circle cx="3" cy="3" r="3"></circle></g>
<g transform="translate(836,264) scale(3.7766666666667)"><circle cx="3" cy="3" r="3"></circle></g>
<g transform="translate(66,286) scale(3.7766666666667)"><circle cx="3" cy="3" r="3"></circle></g>
<g transform="translate(88,286) scale(3.7766666666667)"><circle cx="3" cy="3" r="3"></circle></g>
<g transform="translate(132,286) scale(3.7766666666667)"><circle cx="3" cy="3" r="3"></circle></g>
<g transform="translate(220,286) scale(3.7766666666667)"><circle cx="3" cy="3" r="3"></circle></g>
<g transform="translate(242,286) scale(3.7766666666667)"><circle cx="3" cy="3" r="3"></circle></g>
<g transform="translate(264,286) scale(3.7766666666667)"><circle cx="3" cy="3" r="3"></circle></g>
<g transform="translate(308,286) scale(3.7766666666667)"><circle cx="3" cy="3" r="3"></circle></g>
<g transform="translate(396,286) scale(3.7766666666667)"><circle cx="3" cy="3" r="3"></circle></g>
<g transform="translate(440,286) scale(3.7766666666667)"><circle cx="3" cy="3" r="3"></circle></g>
<g transform="translate(550,286) scale(3.7766666666667)"><circle cx="3" cy="3" r="3"></circle></g>
<g transform="translate(572,286) scale(3.7766666666667)"><circle cx="3" cy="3" r="3"></circle></g>
<g transform="translate(616,286) scale(3.7766666666667)"><circle cx="3" cy="3" r="3"></circle></g>
<g transform="translate(726,286) scale(3.7766666666667)"><circle cx="3" cy="3" r="3"></circle></g>
<g transform="translate(748,286) scale(3.7766666666667)"><circle cx="3" cy="3" r="3"></circle></g>
<g transform="translate(814,286) scale(3.7766666666667)"><circle cx="3" cy="3" r="3"></circle></g>
<g transform="translate(836,286) scale(3.7766666666667)"><circle cx="3" cy="3" r="3"></circle></g>
<g transform="translate(858,286) scale(3.7766666666667)"><circle cx="3" cy="3" r="3"></circle></g>
<g transform="translate(902,286) scale(3.7766666666667)"><circle cx="3" cy="3" r="3"></circle></g>
<g transform="translate(88,308) scale(3.7766666666667)"><circle cx="3" cy="3" r="3"></circle></g>
<g transform="translate(132,308) scale(3.7766666666667)"><circle cx="3" cy="3" r="3"></circle></g>
<g transform="translate(176,308) scale(3.7766666666667)"><circle cx="3" cy="3" r="3"></circle></g>
<g transform="translate(242,308) scale(3.7766666666667)"><circle cx="3" cy="3" r="3"></circle></g>
<g transform="translate(308,308) scale(3.7766666666667)"><circle cx="3" cy="3" r="3"></circle></g>
<g transform="translate(330,308) scale(3.7766666666667)"><circle cx="3" cy="3" r="3"></circle></g>
<g transform="translate(396,308) scale(3.7766666666667)"><circle cx="3" cy="3" r="3"></circle></g>
<g transform="translate(440,308) scale(3.7766666666667)"><circle cx="3" cy="3" r="3"></circle></g>
<g transform="translate(506,308) scale(3.7766666666667)"><circle cx="3" cy="3" r="3"></circle></g>
<g transform="translate(528,308) scale(3.7766666666667)"><circle cx="3" cy="3" r="3"></circle></g>
<g transform="translate(572,308) scale(3.7766666666667)"><circle cx="3" cy="3" r="3"></circle></g>
<g transform="translate(594,308) scale(3.7766666666667)"><circle cx="3" cy="3" r="3"></circle></g>
<g transform="translate(616,308) scale(3.7766666666667)"><circle cx="3" cy="3" r="3"></circle></g>
<g transform="translate(638,308) scale(3.7766666666667)"><circle cx="3" cy="3" r="3"></circle></g>
<g transform="translate(660,308) scale(3.7766666666667)"><circle cx="3" cy="3" r="3"></circle></g>
<g transform="translate(682,308) scale(3.7766666666667)"><circle cx="3" cy="3" r="3"></circle></g>
<g transform="translate(726,308) scale(3.7766666666667)"><circle cx="3" cy="3" r="3"></circle></g>
<g transform="translate(770,308) scale(3.7766666666667)"><circle cx="3" cy="3" r="3"></circle></g>
<g transform="translate(858,308) scale(3.7766666666667)"><circle cx="3" cy="3" r="3"></circle></g>
<g transform="translate(880,308) scale(3.7766666666667)"><circle cx="3" cy="3" r="3"></circle></g>
<g transform="translate(902,308) scale(3.7766666666667)"><circle cx="3" cy="3" r="3"></circle></g>
<g transform="translate(44,330) scale(3.7766666666667)"><circle cx="3" cy="3" r="3"></circle></g>
<g transform="translate(110,330) scale(3.7766666666667)"><circle cx="3" cy="3" r="3"></circle></g>
<g transform="translate(132,330) scale(3.7766666666667)"><circle cx="3" cy="3" r="3"></circle></g>
<g transform="translate(154,330) scale(3.7766666666667)"><circle cx="3" cy="3" r="3"></circle></g>
<g transform="translate(220,330) scale(3.7766666666667)"><circle cx="3" cy="3" r="3"></circle></g>
<g transform="translate(264,330) scale(3.7766666666667)"><circle cx="3" cy="3" r="3"></circle></g>
<g transform="translate(286,330) scale(3.7766666666667)"><circle cx="3" cy="3" r="3"></circle></g>
<g transform="translate(308,330) scale(3.7766666666667)"><circle cx="3" cy="3" r="3"></circle></g>
<g transform="translate(330,330) scale(3.7766666666667)"><circle cx="3" cy="3" r="3"></circle></g>
<g transform="translate(396,330) scale(3.7766666666667)"><circle cx="3" cy="3" r="3"></circle></g>
<g transform="translate(418,330) scale(3.7766666666667)"><circle cx="3" cy="3" r="3"></circle></g>
<g transform="translate(440,330) scale(3.7766666666667)"><circle cx="3" cy="3" r="3"></circle></g>
<g transform="translate(462,330) scale(3.7766666666667)"><circle cx="3" cy="3" r="3"></circle></g>
<g transform="translate(528,330) scale(3.7766666666667)"><circle cx="3" cy="3" r="3"></circle></g>
<g transform="translate(572,330) scale(3.7766666666667)"><circle cx="3" cy="3" r="3"></circle></g>
<g transform="translate(638,330) scale(3.7766666666667)"><circle cx="3" cy="3" r="3"></circle></g>
<g transform="translate(748,330) scale(3.7766666666667)"><circle cx="3" cy="3" r="3"></circle></g>
<g transform="translate(814,330) scale(3.7766666666667)"><circle cx="3" cy="3" r="3"></circle></g>
<g transform="translate(836,330) scale(3.7766666666667)"><circle cx="3" cy="3" r="3"></circle></g>
<g transform="translate(924,330) scale(3.7766666666667)"><circle cx="3" cy="3" r="3"></circle></g>
<g transform="translate(44,352) scale(3.7766666666667)"><circle cx="3" cy="3" r="3"></circle></g>
<g transform="translate(66,352) scale(3.7766666666667)"><circle cx="3" cy="3" r="3"></circle></g>
<g transform="translate(110,352) scale(3.7766666666667)"><circle cx="3" cy="3" r="3"></circle></g>
<g transform="translate(176,352) scale(3.7766666666667)"><circle cx="3" cy="3" r="3"></circle></g>
<g transform="translate(242,352) scale(3.7766666666667)"><circle cx="3" cy="3" r="3"></circle></g>
<g transform="translate(352,352) scale(3.7766666666667)"><circle cx="3" cy="3" r="3"></circle></g>
<g transform="translate(396,352) scale(3.7766666666667)"><circle cx="3" cy="3" r="3"></circle></g>
<g transform="translate(418,352) scale(3.7766666666667)"><circle cx="3" cy="3" r="3"></circle></g>
<g transform="translate(440,352) scale(3.7766666666667)"><circle cx="3" cy="3" r="3"></circle></g>
<g transform="translate(462,352) scale(3.7766666666667)"><circle cx="3" cy="3" r="3"></circle></g>
<g transform="translate(484,352) scale(3.7766666666667)"><circle cx="3" cy="3" r="3"></circle></g>
<g transform="translate(506,352) scale(3.7766666666667)"><circle cx="3" cy="3" r="3"></circle></g>
<g transform="translate(528,352) scale(3.7766666666667)"><circle cx="3" cy="3" r="3"></circle></g>
<g transform="translate(572,352) scale(3.7766666666667)"><circle cx="3" cy="3" r="3"></circle></g>
<g transform="translate(594,352) scale(3.7766666666667)"><circle cx="3" cy="3" r="3"></circle></g>
<g transform="translate(616,352) scale(3.7766666666667)"><circle cx="3" cy="3" r="3"></circle></g>
<g transform="translate(638,352) scale(3.7766666666667)"><circle cx="3" cy="3" r="3"></circle></g>
<g transform="translate(660,352) scale(3.7766666666667)"><circle cx="3" cy="3" r="3"></circle></g>
<g transform="translate(682,352) scale(3.7766666666667)"><circle cx="3" cy="3" r="3"></circle></g>
<g transform="translate(704,352) scale(3.7766666666667)"><circle cx="3" cy="3" r="3"></circle></g>
<g transform="translate(726,352) scale(3.7766666666667)"><circle cx="3" cy="3" r="3"></circle></g>
<g transform="translate(770,352) scale(3.7766666666667)"><circle cx="3" cy="3" r="3"></circle></g>
<g transform="translate(814,352) scale(3.7766666666667)"><circle cx="3" cy="3" r="3"></circle></g>
<g transform="translate(836,352) scale(3.7766666666667)"><circle cx="3" cy="3" r="3"></circle></g>
<g transform="translate(880,352) scale(3.7766666666667)"><circle cx="3" cy="3" r="3"></circle></g>
<g transform="translate(44,374) scale(3.7766666666667)"><circle cx="3" cy="3" r="3"></circle></g>
<g transform="translate(110,374) scale(3.7766666666667)"><circle cx="3" cy="3" r="3"></circle></g>
<g transform="translate(132,374) scale(3.7766666666667)"><circle cx="3" cy="3" r="3"></circle></g>
<g transform="translate(198,374) scale(3.7766666666667)"><circle cx="3" cy="3" r="3"></circle></g>
<g transform="translate(220,374) scale(3.7766666666667)"><circle cx="3" cy="3" r="3"></circle></g>
<g transform="translate(308,374) scale(3.7766666666667)"><circle cx="3" cy="3" r="3"></circle></g>
<g transform="translate(330,374) scale(3.7766666666667)"><circle cx="3" cy="3" r="3"></circle></g>
<g transform="translate(374,374) scale(3.7766666666667)"><circle cx="3" cy="3" r="3"></circle></g>
<g transform="translate(396,374) scale(3.7766666666667)"><circle cx="3" cy="3" r="3"></circle></g>
<g transform="translate(462,374) scale(3.7766666666667)"><circle cx="3" cy="3" r="3"></circle></g>
<g transform="translate(528,374) scale(3.7766666666667)"><circle cx="3" cy="3" r="3"></circle></g>
<g transform="translate(550,374) scale(3.7766666666667)"><circle cx="3" cy="3" r="3"></circle></g>
<g transform="translate(616,374) scale(3.7766666666667)"><circle cx="3" cy="3" r="3"></circle></g>
<g transform="translate(638,374) scale(3.7766666666667)"><circle cx="3" cy="3" r="3"></circle></g>
<g transform="translate(704,374) scale(3.7766666666667)"><circle cx="3" cy="3" r="3"></circle></g>
<g transform="translate(726,374) scale(3.7766666666667)"><circle cx="3" cy="3" r="3"></circle></g>
<g transform="translate(748,374) scale(3.7766666666667)"><circle cx="3" cy="3" r="3"></circle></g>
<g transform="translate(792,374) scale(3.7766666666667)"><circle cx="3" cy="3" r="3"></circle></g>
<g transform="translate(836,374) scale(3.7766666666667)"><circle cx="3" cy="3" r="3"></circle></g>
<g transform="translate(858,374) scale(3.7766666666667)"><circle cx="3" cy="3" r="3"></circle></g>
<g transform="translate(924,374) scale(3.7766666666667)"><circle cx="3" cy="3" r="3"></circle></g>
<g transform="translate(44,396) scale(3.7766666666667)"><circle cx="3" cy="3" r="3"></circle></g>
<g transform="translate(66,396) scale(3.7766666666667)"><circle cx="3" cy="3" r="3"></circle></g>
<g transform="translate(110,396) scale(3.7766666666667)"><circle cx="3" cy="3" r="3"></circle></g>
<g transform="translate(132,396) scale(3.7766666666667)"><circle cx="3" cy="3" r="3"></circle></g>
<g transform="translate(154,396) scale(3.7766666666667)"><circle cx="3" cy="3" r="3"></circle></g>
<g transform="translate(176,396) scale(3.7766666666667)"><circle cx="3" cy="3" r="3"></circle></g>
<g transform="translate(220,396) scale(3.7766666666667)"><circle cx="3" cy="3" r="3"></circle></g>
<g transform="translate(264,396) scale(3.7766666666667)"><circle cx="3" cy="3" r="3"></circle></g>
<g transform="translate(286,396) scale(3.7766666666667)"><circle cx="3" cy="3" r="3"></circle></g>
<g transform="translate(308,396) scale(3.7766666666667)"><circle cx="3" cy="3" r="3"></circle></g>
<g transform="translate(418,396) scale(3.7766666666667)"><circle cx="3" cy="3" r="3"></circle></g>
<g transform="translate(440,396) scale(3.7766666666667)"><circle cx="3" cy="3" r="3"></circle></g>
<g transform="translate(484,396) scale(3.7766666666667)"><circle cx="3" cy="3" r="3"></circle></g>
<g transform="translate(506,396) scale(3.7766666666667)"><circle cx="3" cy="3" r="3"></circle></g>
<g transform="translate(528,396) scale(3.7766666666667)"><circle cx="3" cy="3" r="3"></circle></g>
<g transform="translate(594,396) scale(3.7766666666667)"><circle cx="3" cy="3" r="3"></circle></g>
<g transform="translate(616,396) scale(3.7766666666667)"><circle cx="3" cy="3" r="3"></circle></g>
<g transform="translate(638,396) scale(3.7766666666667)"><circle cx="3" cy="3" r="3"></circle></g>
<g transform="translate(682,396) scale(3.7766666666667)"><circle cx="3" cy="3" r="3"></circle></g>
<g transform="translate(726,396) scale(3.7766666666667)"><circle cx="3" cy="3" r="3"></circle></g>
<g transform="translate(770,396) scale(3.7766666666667)"><circle cx="3" cy="3" r="3"></circle></g>
<g transform="translate(814,396) scale(3.7766666666667)"><circle cx="3" cy="3" r="3"></circle></g>
<g transform="translate(858,396) scale(3.7766666666667)"><circle cx="3" cy="3" r="3"></circle></g>
<g transform="translate(880,396) scale(3.7766666666667)"><circle cx="3" cy="3" r="3"></circle></g>
<g transform="translate(924,396) scale(3.7766666666667)"><circle cx="3" cy="3" r="3"></circle></g>
<g transform="translate(44,418) scale(3.7766666666667)"><circle cx="3" cy="3" r="3"></circle></g>
<g transform="translate(66,418) scale(3.7766666666667)"><circle cx="3" cy="3" r="3"></circle></g>
<g transform="translate(88,418) scale(3.7766666666667)"><circle cx="3" cy="3" r="3"></circle></g>
<g transform="translate(132,418) scale(3.7766666666667)"><circle cx="3" cy="3" r="3"></circle></g>
<g transform="translate(198,418) scale(3.7766666666667)"><circle cx="3" cy="3" r="3"></circle></g>
<g transform="translate(220,418) scale(3.7766666666667)"><circle cx="3" cy="3" r="3"></circle></g>
<g transform="translate(242,418) scale(3.7766666666667)"><circle cx="3" cy="3" r="3"></circle></g>
<g transform="translate(286,418) scale(3.7766666666667)"><circle cx="3" cy="3" r="3"></circle></g>
<g transform="translate(330,418) scale(3.7766666666667)"><circle cx="3" cy="3" r="3"></circle></g>
<g transform="translate(440,418) scale(3.7766666666667)"><circle cx="3" cy="3" r="3"></circle></g>
<g transform="translate(484,418) scale(3.7766666666667)"><circle cx="3" cy="3" r="3"></circle></g>
<g transform="translate(528,418) scale(3.7766666666667)"><circle cx="3" cy="3" r="3"></circle></g>
<g transform="translate(550,418) scale(3.7766666666667)"><circle cx="3" cy="3" r="3"></circle></g>
<g transform="translate(682,418) scale(3.7766666666667)"><circle cx="3" cy="3" r="3"></circle></g>
<g transform="translate(704,418) scale(3.7766666666667)"><circle cx="3" cy="3" r="3"></circle></g>
<g transform="translate(726,418) scale(3.7766666666667)"><circle cx="3" cy="3" r="3"></circle></g>
<g transform="translate(748,418) scale(3.7766666666667)"><circle cx="3" cy="3" r="3"></circle></g>
<g transform="translate(792,418) scale(3.7766666666667)"><circle cx="3" cy="3" r="3"></circle></g>
<g transform="translate(814,418) scale(3.7766666666667)"><circle cx="3" cy="3" r="3"></circle></g>
<g transform="translate(836,418) scale(3.7766666666667)"><circle cx="3" cy="3" r="3"></circle></g>
<g transform="translate(858,418) scale(3.7766666666667)"><circle cx="3" cy="3" r="3"></circle></g>
<g transform="translate(924,418) scale(3.7766666666667)"><circle cx="3" cy="3" r="3"></circle></g>
<g transform="translate(44,440) scale(3.7766666666667)"><circle cx="3" cy="3" r="3"></circle></g>
<g transform="translate(66,440) scale(3.7766666666667)"><circle cx="3" cy="3" r="3"></circle></g>
<g transform="translate(132,440) scale(3.7766666666667)"><circle cx="3" cy="3" r="3"></circle></g>
<g transform="translate(154,440) scale(3.7766666666667)"><circle cx="3" cy="3" r="3"></circle></g>
<g transform="translate(176,440) scale(3.7766666666667)"><circle cx="3" cy="3" r="3"></circle></g>
<g transform="translate(198,440) scale(3.7766666666667)"><circle cx="3" cy="3" r="3"></circle></g>
<g transform="translate(374,440) scale(3.7766666666667)"><circle cx="3" cy="3" r="3"></circle></g>
<g transform="translate(440,440) scale(3.7766666666667)"><circle cx="3" cy="3" r="3"></circle></g>
<g transform="translate(462,440) scale(3.7766666666667)"><circle cx="3" cy="3" r="3"></circle></g>
<g transform="translate(484,440) scale(3.7766666666667)"><circle cx="3" cy="3" r="3"></circle></g>
<g transform="translate(506,440) scale(3.7766666666667)"><circle cx="3" cy="3" r="3"></circle></g>
<g transform="translate(572,440) scale(3.7766666666667)"><circle cx="3" cy="3" r="3"></circle></g>
<g transform="translate(594,440) scale(3.7766666666667)"><circle cx="3" cy="3" r="3"></circle></g>
<g transform="translate(616,440) scale(3.7766666666667)"><circle cx="3" cy="3" r="3"></circle></g>
<g transform="translate(638,440) scale(3.7766666666667)"><circle cx="3" cy="3" r="3"></circle></g>
<g transform="translate(682,440) scale(3.7766666666667)"><circle cx="3" cy="3" r="3"></circle></g>
<g transform="translate(792,440) scale(3.7766666666667)"><circle cx="3" cy="3" r="3"></circle></g>
<g transform="translate(836,440) scale(3.7766666666667)"><circle cx="3" cy="3" r="3"></circle></g>
<g transform="translate(858,440) scale(3.7766666666667)"><circle cx="3" cy="3" r="3"></circle></g>
<g transform="translate(110,462) scale(3.7766666666667)"><circle cx="3" cy="3" r="3"></circle></g>
<g transform="translate(154,462) scale(3.7766666666667)"><circle cx="3" cy="3" r="3"></circle></g>
<g transform="translate(198,462) scale(3.7766666666667)"><circle cx="3" cy="3" r="3"></circle></g>
<g transform="translate(242,462) scale(3.7766666666667)"><circle cx="3" cy="3" r="3"></circle></g>
<g transform="translate(264,462) scale(3.7766666666667)"><circle cx="3" cy="3" r="3"></circle></g>
<g transform="translate(286,462) scale(3.7766666666667)"><circle cx="3" cy="3" r="3"></circle></g>
<g transform="translate(308,462) scale(3.7766666666667)"><circle cx="3" cy="3" r="3"></circle></g>
<g transform="translate(352,462) scale(3.7766666666667)"><circle cx="3" cy="3" r="3"></circle></g>
<g transform="translate(374,462) scale(3.7766666666667)"><circle cx="3" cy="3" r="3"></circle></g>
<g transform="translate(440,462) scale(3.7766666666667)"><circle cx="3" cy="3" r="3"></circle></g>
<g transform="translate(528,462) scale(3.7766666666667)"><circle cx="3" cy="3" r="3"></circle></g>
<g transform="translate(550,462) scale(3.7766666666667)"><circle cx="3" cy="3" r="3"></circle></g>
<g transform="translate(616,462) scale(3.7766666666667)"><circle cx="3" cy="3" r="3"></circle></g>
<g transform="translate(638,462) scale(3.7766666666667)"><circle cx="3" cy="3" r="3"></circle></g>
<g transform="translate(660,462) scale(3.7766666666667)"><circle cx="3" cy="3" r="3"></circle></g>
<g transform="translate(682,462) scale(3.7766666666667)"><circle cx="3" cy="3" r="3"></circle></g>
<g transform="translate(704,462) scale(3.7766666666667)"><circle cx="3" cy="3" r="3"></circle></g>
<g transform="translate(726,462) scale(3.7766666666667)"><circle cx="3" cy="3" r="3"></circle></g>
<g transform="translate(748,462) scale(3.7766666666667)"><circle cx="3" cy="3" r="3"></circle></g>
<g transform="translate(770,462) scale(3.7766666666667)"><circle cx="3" cy="3" r="3"></circle></g>
<g transform="translate(836,462) scale(3.7766666666667)"><circle cx="3" cy="3" r="3"></circle></g>
<g transform="translate(858,462) scale(3.7766666666667)"><circle cx="3" cy="3" r="3"></circle></g>
<g transform="translate(924,462) scale(3.7766666666667)"><circle cx="3" cy="3" r="3"></circle></g>
<g transform="translate(44,484) scale(3.7766666666667)"><circle cx="3" cy="3" r="3"></circle></g>
<g transform="translate(66,484) scale(3.7766666666667)"><circle cx="3" cy="3" r="3"></circle></g>
<g transform="translate(88,484) scale(3.7766666666667)"><circle cx="3" cy="3" r="3"></circle></g>
<g transform="translate(110,484) scale(3.7766666666667)"><circle cx="3" cy="3" r="3"></circle></g>
<g transform="translate(154,484) scale(3.7766666666667)"><circle cx="3" cy="3" r="3"></circle></g>
<g transform="translate(176,484) scale(3.7766666666667)"><circle cx="3" cy="3" r="3"></circle></g>
<g transform="translate(220,484) scale(3.7766666666667)"><circle cx="3" cy="3" r="3"></circle></g>
<g transform="translate(264,484) scale(3.7766666666667)"><circle cx="3" cy="3" r="3"></circle></g>
<g transform="translate(286,484) scale(3.7766666666667)"><circle cx="3" cy="3" r="3"></circle></g>
<g transform="translate(308,484) scale(3.7766666666667)"><circle cx="3" cy="3" r="3"></circle></g>
<g transform="translate(330,484) scale(3.7766666666667)"><circle cx="3" cy="3" r="3"></circle></g>
<g transform="translate(352,484) scale(3.7766666666667)"><circle cx="3" cy="3" r="3"></circle></g>
<g transform="translate(418,484) scale(3.7766666666667)"><circle cx="3" cy="3" r="3"></circle></g>
<g transform="translate(484,484) scale(3.7766666666667)"><circle cx="3" cy="3" r="3"></circle></g>
<g transform="translate(616,484) scale(3.7766666666667)"><circle cx="3" cy="3" r="3"></circle></g>
<g transform="translate(748,484) scale(3.7766666666667)"><circle cx="3" cy="3" r="3"></circle></g>
<g transform="translate(836,484) scale(3.7766666666667)"><circle cx="3" cy="3" r="3"></circle></g>
<g transform="translate(880,484) scale(3.7766666666667)"><circle cx="3" cy="3" r="3"></circle></g>
<g transform="translate(924,484) scale(3.7766666666667)"><circle cx="3" cy="3" r="3"></circle></g>
<g transform="translate(44,506) scale(3.7766666666667)"><circle cx="3" cy="3" r="3"></circle></g>
<g transform="translate(88,506) scale(3.7766666666667)"><circle cx="3" cy="3" r="3"></circle></g>
<g transform="translate(132,506) scale(3.7766666666667)"><circle cx="3" cy="3" r="3"></circle></g>
<g transform="translate(154,506) scale(3.7766666666667)"><circle cx="3" cy="3" r="3"></circle></g>
<g transform="translate(198,506) scale(3.7766666666667)"><circle cx="3" cy="3" r="3"></circle></g>
<g transform="translate(220,506) scale(3.7766666666667)"><circle cx="3" cy="3" r="3"></circle></g>
<g transform="translate(242,506) scale(3.7766666666667)"><circle cx="3" cy="3" r="3"></circle></g>
<g transform="translate(264,506) scale(3.7766666666667)"><circle cx="3" cy="3" r="3"></circle></g>
<g transform="translate(308,506) scale(3.7766666666667)"><circle cx="3" cy="3" r="3"></circle></g>
<g transform="translate(396,506) scale(3.7766666666667)"><circle cx="3" cy="3" r="3"></circle></g>
<g transform="translate(484,506) scale(3.7766666666667)"><circle cx="3" cy="3" r="3"></circle></g>
<g transform="translate(616,506) scale(3.7766666666667)"><circle cx="3" cy="3" r="3"></circle></g>
<g transform="translate(682,506) scale(3.7766666666667)"><circle cx="3" cy="3" r="3"></circle></g>
<g transform="translate(704,506) scale(3.7766666666667)"><circle cx="3" cy="3" r="3"></circle></g>
<g transform="translate(726,506) scale(3.7766666666667)"><circle cx="3" cy="3" r="3"></circle></g>
<g transform="translate(748,506) scale(3.7766666666667)"><circle cx="3" cy="3" r="3"></circle></g>
<g transform="translate(770,506) scale(3.7766666666667)"><circle cx="3" cy="3" r="3"></circle></g>
<g transform="translate(792,506) scale(3.7766666666667)"><circle cx="3" cy="3" r="3"></circle></g>
<g transform="translate(814,506) scale(3.7766666666667)"><circle cx="3" cy="3" r="3"></circle></g>
<g transform="translate(902,506) scale(3.7766666666667)"><circle cx="3" cy="3" r="3"></circle></g>
<g transform="translate(924,506) scale(3.7766666666667)"><circle cx="3" cy="3" r="3"></circle></g>
<g transform="translate(44,528) scale(3.7766666666667)"><circle cx="3" cy="3" r="3"></circle></g>
<g transform="translate(66,528) scale(3.7766666666667)"><circle cx="3" cy="3" r="3"></circle></g>
<g transform="translate(88,528) scale(3.7766666666667)"><circle cx="3" cy="3" r="3"></circle></g>
<g transform="translate(110,528) scale(3.7766666666667)"><circle cx="3" cy="3" r="3"></circle></g>
<g transform="translate(176,528) scale(3.7766666666667)"><circle cx="3" cy="3" r="3"></circle></g>
<g transform="translate(198,528) scale(3.7766666666667)"><circle cx="3" cy="3" r="3"></circle></g>
<g transform="translate(264,528) scale(3.7766666666667)"><circle cx="3" cy="3" r="3"></circle></g>
<g transform="translate(352,528) scale(3.7766666666667)"><circle cx="3" cy="3" r="3"></circle></g>
<g transform="translate(374,528) scale(3.7766666666667)"><circle cx="3" cy="3" r="3"></circle></g>
<g transform="translate(396,528) scale(3.7766666666667)"><circle cx="3" cy="3" r="3"></circle></g>
<g transform="translate(462,528) scale(3.7766666666667)"><circle cx="3" cy="3" r="3"></circle></g>
<g transform="translate(484,528) scale(3.7766666666667)"><circle cx="3" cy="3" r="3"></circle></g>
<g transform="translate(506,528) scale(3.7766666666667)"><circle cx="3" cy="3" r="3"></circle></g>
<g transform="translate(572,528) scale(3.7766666666667)"><circle cx="3" cy="3" r="3"></circle></g>
<g transform="translate(638,528) scale(3.7766666666667)"><circle cx="3" cy="3" r="3"></circle></g>
<g transform="translate(660,528) scale(3.7766666666667)"><circle cx="3" cy="3" r="3"></circle></g>
<g transform="translate(704,528) scale(3.7766666666667)"><circle cx="3" cy="3" r="3"></circle></g>
<g transform="translate(748,528) scale(3.7766666666667)"><circle cx="3" cy="3" r="3"></circle></g>
<g transform="translate(770,528) scale(3.7766666666667)"><circle cx="3" cy="3" r="3"></circle></g>
<g transform="translate(66,550) scale(3.7766666666667)"><circle cx="3" cy="3" r="3"></circle></g>
<g transform="translate(154,550) scale(3.7766666666667)"><circle cx="3" cy="3" r="3"></circle></g>
<g transform="translate(198,550) scale(3.7766666666667)"><circle cx="3" cy="3" r="3"></circle></g>
<g transform="translate(242,550) scale(3.7766666666667)"><circle cx="3" cy="3" r="3"></circle></g>
<g transform="translate(286,550) scale(3.7766666666667)"><circle cx="3" cy="3" r="3"></circle></g>
<g transform="translate(352,550) scale(3.7766666666667)"><circle cx="3" cy="3" r="3"></circle></g>
<g transform="translate(374,550) scale(3.7766666666667)"><circle cx="3" cy="3" r="3"></circle></g>
<g transform="translate(440,550) scale(3.7766666666667)"><circle cx="3" cy="3" r="3"></circle></g>
<g transform="translate(462,550) scale(3.7766666666667)"><circle cx="3" cy="3" r="3"></circle></g>
<g transform="translate(528,550) scale(3.7766666666667)"><circle cx="3" cy="3" r="3"></circle></g>
<g transform="translate(572,550) scale(3.7766666666667)"><circle cx="3" cy="3" r="3"></circle></g>
<g transform="translate(638,550) scale(3.7766666666667)"><circle cx="3" cy="3" r="3"></circle></g>
<g transform="translate(748,550) scale(3.7766666666667)"><circle cx="3" cy="3" r="3"></circle></g>
<g transform="translate(770,550) scale(3.7766666666667)"><circle cx="3" cy="3" r="3"></circle></g>
<g transform="translate(792,550) scale(3.7766666666667)"><circle cx="3" cy="3" r="3"></circle></g>
<g transform="translate(814,550) scale(3.7766666666667)"><circle cx="3" cy="3" r="3"></circle></g>
<g transform="translate(924,550) scale(3.7766666666667)"><circle cx="3" cy="3" r="3"></circle></g>
<g transform="translate(66,572) scale(3.7766666666667)"><circle cx="3" cy="3" r="3"></circle></g>
<g transform="translate(88,572) scale(3.7766666666667)"><circle cx="3" cy="3" r="3"></circle></g>
<g transform="translate(132,572) scale(3.7766666666667)"><circle cx="3" cy="3" r="3"></circle></g>
<g transform="translate(176,572) scale(3.7766666666667)"><circle cx="3" cy="3" r="3"></circle></g>
<g transform="translate(198,572) scale(3.7766666666667)"><circle cx="3" cy="3" r="3"></circle></g>
<g transform="translate(220,572) scale(3.7766666666667)"><circle cx="3" cy="3" r="3"></circle></g>
<g transform="translate(242,572) scale(3.7766666666667)"><circle cx="3" cy="3" r="3"></circle></g>
<g transform="translate(286,572) scale(3.7766666666667)"><circle cx="3" cy="3" r="3"></circle></g>
<g transform="translate(308,572) scale(3.7766666666667)"><circle cx="3" cy="3" r="3"></circle></g>
<g transform="translate(352,572) scale(3.7766666666667)"><circle cx="3" cy="3" r="3"></circle></g>
<g transform="translate(396,572) scale(3.7766666666667)"><circle cx="3" cy="3" r="3"></circle></g>
<g transform="translate(440,572) scale(3.7766666666667)"><circle cx="3" cy="3" r="3"></circle></g>
<g transform="translate(462,572) scale(3.7766666666667)"><circle cx="3" cy="3" r="3"></circle></g>
<g transform="translate(506,572) scale(3.7766666666667)"><circle cx="3" cy="3" r="3"></circle></g>
<g transform="translate(550,572) scale(3.7766666666667)"><circle cx="3" cy="3" r="3"></circle></g>
<g transform="translate(572,572) scale(3.7766666666667)"><circle cx="3" cy="3" r="3"></circle></g>
<g transform="translate(594,572) scale(3.7766666666667)"><circle cx="3" cy="3" r="3"></circle></g>
<g transform="translate(616,572) scale(3.7766666666667)"><circle cx="3" cy="3" r="3"></circle></g>
<g transform="translate(660,572) scale(3.7766666666667)"><circle cx="3" cy="3" r="3"></circle></g>
<g transform="translate(682,572) scale(3.7766666666667)"><circle cx="3" cy="3" r="3"></circle></g>
<g transform="translate(726,572) scale(3.7766666666667)"><circle cx="3" cy="3" r="3"></circle></g>
<g transform="translate(770,572) scale(3.7766666666667)"><circle cx="3" cy="3" r="3"></circle></g>
<g transform="translate(880,572) scale(3.7766666666667)"><circle cx="3" cy="3" r="3"></circle></g>
<g transform="translate(924,572) scale(3.7766666666667)"><circle cx="3" cy="3" r="3"></circle></g>
<g transform="translate(66,594) scale(3.7766666666667)"><circle cx="3" cy="3" r="3"></circle></g>
<g transform="translate(88,594) scale(3.7766666666667)"><circle cx="3" cy="3" r="3"></circle></g>
<g transform="translate(132,594) scale(3.7766666666667)"><circle cx="3" cy="3" r="3"></circle></g>
<g transform="translate(154,594) scale(3.7766666666667)"><circle cx="3" cy="3" r="3"></circle></g>
<g transform="translate(198,594) scale(3.7766666666667)"><circle cx="3" cy="3" r="3"></circle></g>
<g transform="translate(220,594) scale(3.7766666666667)"><circle cx="3" cy="3" r="3"></circle></g>
<g transform="translate(242,594) scale(3.7766666666667)"><circle cx="3" cy="3" r="3"></circle></g>
<g transform="translate(286,594) scale(3.7766666666667)"><circle cx="3" cy="3" r="3"></circle></g>
<g transform="translate(330,594) scale(3.7766666666667)"><circle cx="3" cy="3" r="3"></circle></g>
<g transform="translate(352,594) scale(3.7766666666667)"><circle cx="3" cy="3" r="3"></circle></g>
<g transform="translate(374,594) scale(3.7766666666667)"><circle cx="3" cy="3" r="3"></circle></g>
<g transform="translate(418,594) scale(3.7766666666667)"><circle cx="3" cy="3" r="3"></circle></g>
<g transform="translate(440,594) scale(3.7766666666667)"><circle cx="3" cy="3" r="3"></circle></g>
<g transform="translate(462,594) scale(3.7766666666667)"><circle cx="3" cy="3" r="3"></circle></g>
<g transform="translate(484,594) scale(3.7766666666667)"><circle cx="3" cy="3" r="3"></circle></g>
<g transform="translate(528,594) scale(3.7766666666667)"><circle cx="3" cy="3" r="3"></circle></g>
<g transform="translate(572,594) scale(3.7766666666667)"><circle cx="3" cy="3" r="3"></circle></g>
<g transform="translate(616,594) scale(3.7766666666667)"><circle cx="3" cy="3" r="3"></circle></g>
<g transform="translate(660,594) scale(3.7766666666667)"><circle cx="3" cy="3" r="3"></circle></g>
<g transform="translate(726,594) scale(3.7766666666667)"><circle cx="3" cy="3" r="3"></circle></g>
<g transform="translate(770,594) scale(3.7766666666667)"><circle cx="3" cy="3" r="3"></circle></g>
<g transform="translate(792,594) scale(3.7766666666667)"><circle cx="3" cy="3" r="3"></circle></g>
<g transform="translate(814,594) scale(3.7766666666667)"><circle cx="3" cy="3" r="3"></circle></g>
<g transform="translate(836,594) scale(3.7766666666667)"><circle cx="3" cy="3" r="3"></circle></g>
<g transform="translate(858,594) scale(3.7766666666667)"><circle cx="3" cy="3" r="3"></circle></g>
<g transform="translate(924,594) scale(3.7766666666667)"><circle cx="3" cy="3" r="3"></circle></g>
<g transform="translate(88,616) scale(3.7766666666667)"><circle cx="3" cy="3" r="3"></circle></g>
<g transform="translate(110,616) scale(3.7766666666667)"><circle cx="3" cy="3" r="3"></circle></g>
<g transform="translate(154,616) scale(3.7766666666667)"><circle cx="3" cy="3" r="3"></circle></g>
<g transform="translate(176,616) scale(3.7766666666667)"><circle cx="3" cy="3" r="3"></circle></g>
<g transform="translate(220,616) scale(3.7766666666667)"><circle cx="3" cy="3" r="3"></circle></g>
<g transform="translate(242,616) scale(3.7766666666667)"><circle cx="3" cy="3" r="3"></circle></g>
<g transform="translate(286,616) scale(3.7766666666667)"><circle cx="3" cy="3" r="3"></circle></g>
<g transform="translate(308,616) scale(3.7766666666667)"><circle cx="3" cy="3" r="3"></circle></g>
<g transform="translate(330,616) scale(3.7766666666667)"><circle cx="3" cy="3" r="3"></circle></g>
<g transform="translate(352,616) scale(3.7766666666667)"><circle cx="3" cy="3" r="3"></circle></g>
<g transform="translate(374,616) scale(3.7766666666667)"><circle cx="3" cy="3" r="3"></circle></g>
<g transform="translate(440,616) scale(3.7766666666667)"><circle cx="3" cy="3" r="3"></circle></g>
<g transform="translate(462,616) scale(3.7766666666667)"><circle cx="3" cy="3" r="3"></circle></g>
<g transform="translate(528,616) scale(3.7766666666667)"><circle cx="3" cy="3" r="3"></circle></g>
<g transform="translate(572,616) scale(3.7766666666667)"><circle cx="3" cy="3" r="3"></circle></g>
<g transform="translate(616,616) scale(3.7766666666667)"><circle cx="3" cy="3" r="3"></circle></g>
<g transform="translate(638,616) scale(3.7766666666667)"><circle cx="3" cy="3" r="3"></circle></g>
<g transform="translate(660,616) scale(3.7766666666667)"><circle cx="3" cy="3" r="3"></circle></g>
<g transform="translate(682,616) scale(3.7766666666667)"><circle cx="3" cy="3" r="3"></circle></g>
<g transform="translate(704,616) scale(3.7766666666667)"><circle cx="3" cy="3" r="3"></circle></g>
<g transform="translate(748,616) scale(3.7766666666667)"><circle cx="3" cy="3" r="3"></circle></g>
<g transform="translate(792,616) scale(3.7766666666667)"><circle cx="3" cy="3" r="3"></circle></g>
<g transform="translate(836,616) scale(3.7766666666667)"><circle cx="3" cy="3" r="3"></circle></g>
<g transform="translate(44,638) scale(3.7766666666667)"><circle cx="3" cy="3" r="3"></circle></g>
<g transform="translate(110,638) scale(3.7766666666667)"><circle cx="3" cy="3" r="3"></circle></g>
<g transform="translate(132,638) scale(3.7766666666667)"><circle cx="3" cy="3" r="3"></circle></g>
<g transform="translate(154,638) scale(3.7766666666667)"><circle cx="3" cy="3" r="3"></circle></g>
<g transform="translate(198,638) scale(3.7766666666667)"><circle cx="3" cy="3" r="3"></circle></g>
<g transform="translate(242,638) scale(3.7766666666667)"><circle cx="3" cy="3" r="3"></circle></g>
<g transform="translate(264,638) scale(3.7766666666667)"><circle cx="3" cy="3" r="3"></circle></g>
<g transform="translate(286,638) scale(3.7766666666667)"><circle cx="3" cy="3" r="3"></circle></g>
<g transform="translate(308,638) scale(3.7766666666667)"><circle cx="3" cy="3" r="3"></circle></g>
<g transform="translate(330,638) scale(3.7766666666667)"><circle cx="3" cy="3" r="3"></circle></g>
<g transform="translate(374,638) scale(3.7766666666667)"><circle cx="3" cy="3" r="3"></circle></g>
<g transform="translate(396,638) scale(3.7766666666667)"><circle cx="3" cy="3" r="3"></circle></g>
<g transform="translate(418,638) scale(3.7766666666667)"><circle cx="3" cy="3" r="3"></circle></g>
<g transform="translate(440,638) scale(3.7766666666667)"><circle cx="3" cy="3" r="3"></circle></g>
<g transform="translate(484,638) scale(3.7766666666667)"><circle cx="3" cy="3" r="3"></circle></g>
<g transform="translate(506,638) scale(3.7766666666667)"><circle cx="3" cy="3" r="3"></circle></g>
<g transform="translate(572,638) scale(3.7766666666667)"><circle cx="3" cy="3" r="3"></circle></g>
<g transform="translate(638,638) scale(3.7766666666667)"><circle cx="3" cy="3" r="3"></circle></g>
<g transform="translate(660,638) scale(3.7766666666667)"><circle cx="3" cy="3" r="3"></circle></g>
<g transform="translate(704,638) scale(3.7766666666667)"><circle cx="3" cy="3" r="3"></circle></g>
<g transform="translate(726,638) scale(3.7766666666667)"><circle cx="3" cy="3" r="3"></circle></g>
<g transform="translate(748,638) scale(3.7766666666667)"><circle cx="3" cy="3" r="3"></circle></g>
<g transform="translate(770,638) scale(3.7766666666667)"><circle cx="3" cy="3" r="3"></circle></g>
<g transform="translate(792,638) scale(3.7766666666667)"><circle cx="3" cy="3" r="3"></circle></g>
<g transform="translate(814,638) scale(3.7766666666667)"><circle cx="3" cy="3" r="3"></circle></g>
<g transform="translate(836,638) scale(3.7766666666667)"><circle cx="3" cy="3" r="3"></circle></g>
<g transform="translate(858,638) scale(3.7766666666667)"><circle cx="3" cy="3" r="3"></circle></g>
<g transform="translate(44,660) scale(3.7766666666667)"><circle cx="3" cy="3" r="3"></circle></g>
<g transform="translate(66,660) scale(3.7766666666667)"><circle cx="3" cy="3" r="3"></circle></g>
<g transform="translate(88,660) scale(3.7766666666667)"><circle cx="3" cy="3" r="3"></circle></g>
<g transform="translate(132,660) scale(3.7766666666667)"><circle cx="3" cy="3" r="3"></circle></g>
<g transform="translate(176,660) scale(3.7766666666667)"><circle cx="3" cy="3" r="3"></circle></g>
<g transform="translate(198,660) scale(3.7766666666667)"><circle cx="3" cy="3" r="3"></circle></g>
<g transform="translate(220,660) scale(3.7766666666667)"><circle cx="3" cy="3" r="3"></circle></g>
<g transform="translate(264,660) scale(3.7766666666667)"><circle cx="3" cy="3" r="3"></circle></g>
<g transform="translate(286,660) scale(3.7766666666667)"><circle cx="3" cy="3" r="3"></circle></g>
<g transform="translate(374,660) scale(3.7766666666667)"><circle cx="3" cy="3" r="3"></circle></g>
<g transform="translate(462,660) scale(3.7766666666667)"><circle cx="3" cy="3" r="3"></circle></g>
<g transform="translate(550,660) scale(3.7766666666667)"><circle cx="3" cy="3" r="3"></circle></g>
<g transform="translate(572,660) scale(3.7766666666667)"><circle cx="3" cy="3" r="3"></circle></g>
<g transform="translate(616,660) scale(3.7766666666667)"><circle cx="3" cy="3" r="3"></circle></g>
<g transform="translate(638,660) scale(3.7766666666667)"><circle cx="3" cy="3" r="3"></circle></g>
<g transform="translate(682,660) scale(3.7766666666667)"><circle cx="3" cy="3" r="3"></circle></g>
<g transform="translate(726,660) scale(3.7766666666667)"><circle cx="3" cy="3" r="3"></circle></g>
<g transform="translate(748,660) scale(3.7766666666667)"><circle cx="3" cy="3" r="3"></circle></g>
<g transform="translate(792,660) scale(3.7766666666667)"><circle cx="3" cy="3" r="3"></circle></g>
<g transform="translate(858,660) scale(3.7766666666667)"><circle cx="3" cy="3" r="3"></circle></g>
<g transform="translate(880,660) scale(3.7766666666667)"><circle cx="3" cy="3" r="3"></circle></g>
<g transform="translate(902,660) scale(3.7766666666667)"><circle cx="3" cy="3" r="3"></circle></g>
<g transform="translate(44,682) scale(3.7766666666667)"><circle cx="3" cy="3" r="3"></circle></g>
<g transform="translate(132,682) scale(3.7766666666667)"><circle cx="3" cy="3" r="3"></circle></g>
<g transform="translate(154,682) scale(3.7766666666667)"><circle cx="3" cy="3" r="3"></circle></g>
<g transform="translate(242,682) scale(3.7766666666667)"><circle cx="3" cy="3" r="3"></circle></g>
<g transform="translate(352,682) scale(3.7766666666667)"><circle cx="3" cy="3" r="3"></circle></g>
<g transform="translate(396,682) scale(3.7766666666667)"><circle cx="3" cy="3" r="3"></circle></g>
<g transform="translate(440,682) scale(3.7766666666667)"><circle cx="3" cy="3" r="3"></circle></g>
<g transform="translate(484,682) scale(3.7766666666667)"><circle cx="3" cy="3" r="3"></circle></g>
<g transform="translate(506,682) scale(3.7766666666667)"><circle cx="3" cy="3" r="3"></circle></g>
<g transform="translate(550,682) scale(3.7766666666667)"><circle cx="3" cy="3" r="3"></circle></g>
<g transform="translate(572,682) scale(3.7766666666667)"><circle cx="3" cy="3" r="3"></circle></g>
<g transform="translate(638,682) scale(3.7766666666667)"><circle cx="3" cy="3" r="3"></circle></g>
<g transform="translate(660,682) scale(3.7766666666667)"><circle cx="3" cy="3" r="3"></circle></g>
<g transform="translate(770,682) scale(3.7766666666667)"><circle cx="3" cy="3" r="3"></circle></g>
<g transform="translate(814,682) scale(3.7766666666667)"><circle cx="3" cy="3" r="3"></circle></g>
<g transform="translate(836,682) scale(3.7766666666667)"><circle cx="3" cy="3" r="3"></circle></g>
<g transform="translate(858,682) scale(3.7766666666667)"><circle cx="3" cy="3" r="3"></circle></g>
<g transform="translate(902,682) scale(3.7766666666667)"><circle cx="3" cy="3" r="3"></circle></g>
<g transform="translate(924,682) scale(3.7766666666667)"><circle cx="3" cy="3" r="3"></circle></g>
<g transform="translate(44,704) scale(3.7766666666667)"><circle cx="3" cy="3" r="3"></circle></g>
<g transform="translate(110,704) scale(3.7766666666667)"><circle cx="3" cy="3" r="3"></circle></g>
<g transform="translate(154,704) scale(3.7766666666667)"><circle cx="3" cy="3" r="3"></circle></g>
<g transform="translate(176,704) scale(3.7766666666667)"><circle cx="3" cy="3" r="3"></circle></g>
<g transform="translate(220,704) scale(3.7766666666667)"><circle cx="3" cy="3" r="3"></circle></g>
<g transform="translate(352,704) scale(3.7766666666667)"><circle cx="3" cy="3" r="3"></circle></g>
<g transform="translate(572,704) scale(3.7766666666667)"><circle cx="3" cy="3" r="3"></circle></g>
<g transform="translate(594,704) scale(3.7766666666667)"><circle cx="3" cy="3" r="3"></circle></g>
<g transform="translate(682,704) scale(3.7766666666667)"><circle cx="3" cy="3" r="3"></circle></g>
<g transform="translate(704,704) scale(3.7766666666667)"><circle cx="3" cy="3" r="3"></circle></g>
<g transform="translate(748,704) scale(3.7766666666667)"><circle cx="3" cy="3" r="3"></circle></g>
<g transform="translate(770,704) scale(3.7766666666667)"><circle cx="3" cy="3" r="3"></circle></g>
<g transform="translate(792,704) scale(3.7766666666667)"><circle cx="3" cy="3" r="3"></circle></g>
<g transform="translate(836,704) scale(3.7766666666667)"><circle cx="3" cy="3" r="3"></circle></g>
<g transform="translate(44,726) scale(3.7766666666667)"><circle cx="3" cy="3" r="3"></circle></g>
<g transform="translate(88,726) scale(3.7766666666667)"><circle cx="3" cy="3" r="3"></circle></g>
<g transform="translate(154,726) scale(3.7766666666667)"><circle cx="3" cy="3" r="3"></circle></g>
<g transform="translate(220,726) scale(3.7766666666667)"><circle cx="3" cy="3" r="3"></circle></g>
<g transform="translate(264,726) scale(3.7766666666667)"><circle cx="3" cy="3" r="3"></circle></g>
<g transform="translate(308,726) scale(3.7766666666667)"><circle cx="3" cy="3" r="3"></circle></g>
<g transform="translate(374,726) scale(3.7766666666667)"><circle cx="3" cy="3" r="3"></circle></g>
<g transform="translate(418,726) scale(3.7766666666667)"><circle cx="3" cy="3" r="3"></circle></g>
<g transform="translate(484,726) scale(3.7766666666667)"><circle cx="3" cy="3" r="3"></circle></g>
<g transform="translate(572,726) scale(3.7766666666667)"><circle cx="3" cy="3" r="3"></circle></g>
<g transform="translate(594,726) scale(3.7766666666667)"><circle cx="3" cy="3" r="3"></circle></g>
<g transform="translate(616,726) scale(3.7766666666667)"><circle cx="3" cy="3" r="3"></circle></g>
<g transform="translate(660,726) scale(3.7766666666667)"><circle cx="3" cy="3" r="3"></circle></g>
<g transform="translate(770,726) scale(3.7766666666667)"><circle cx="3" cy="3" r="3"></circle></g>
<g transform="translate(792,726) scale(3.7766666666667)"><circle cx="3" cy="3" r="3"></circle></g>
<g transform="translate(814,726) scale(3.7766666666667)"><circle cx="3" cy="3" r="3"></circle></g>
<g transform="translate(836,726) scale(3.7766666666667)"><circle cx="3" cy="3" r="3"></circle></g>
<g transform="translate(858,726) scale(3.7766666666667)"><circle cx="3" cy="3" r="3"></circle></g>
<g transform="translate(924,726) scale(3.7766666666667)"><circle cx="3" cy="3" r="3"></circle></g>
<g transform="translate(44,748) scale(3.7766666666667)"><circle cx="3" cy="3" r="3"></circle></g>
<g transform="translate(88,748) scale(3.7766666666667)"><circle cx="3" cy="3" r="3"></circle></g>
<g transform="translate(110,748) scale(3.7766666666667)"><circle cx="3" cy="3" r="3"></circle></g>
<g transform="translate(154,748) scale(3.7766666666667)"><circle cx="3" cy="3" r="3"></circle></g>
<g transform="translate(176,748) scale(3.7766666666667)"><circle cx="3" cy="3" r="3"></circle></g>
<g transform="translate(264,748) scale(3.7766666666667)"><circle cx="3" cy="3" r="3"></circle></g>
<g transform="translate(330,748) scale(3.7766666666667)"><circle cx="3" cy="3" r="3"></circle></g>
<g transform="translate(352,748) scale(3.7766666666667)"><circle cx="3" cy="3" r="3"></circle></g>
<g transform="translate(374,748) scale(3.7766666666667)"><circle cx="3" cy="3" r="3"></circle></g>
<g transform="translate(418,748) scale(3.7766666666667)"><circle cx="3" cy="3" r="3"></circle></g>
<g transform="translate(440,748) scale(3.7766666666667)"><circle cx="3" cy="3" r="3"></circle></g>
<g transform="translate(484,748) scale(3.7766666666667)"><circle cx="3" cy="3" r="3"></circle></g>
<g transform="translate(528,748) scale(3.7766666666667)"><circle cx="3" cy="3" r="3"></circle></g>
<g transform="translate(572,748) scale(3.7766666666667)"><circle cx="3" cy="3" r="3"></circle></g>
<g transform="translate(594,748) scale(3.7766666666667)"><circle cx="3" cy="3" r="3"></circle></g>
<g transform="translate(616,748) scale(3.7766666666667)"><circle cx="3" cy="3" r="3"></circle></g>
<g transform="translate(682,748) scale(3.7766666666667)"><circle cx="3" cy="3" r="3"></circle></g>
<g transform="translate(748,748) scale(3.7766666666667)"><circle cx="3" cy="3" r="3"></circle></g>
<g transform="translate(770,748) scale(3.7766666666667)"><circle cx="3" cy="3" r="3"></circle></g>
<g transform="translate(792,748) scale(3.7766666666667)"><circle cx="3" cy="3" r="3"></circle></g>
<g transform="translate(814,748) scale(3.7766666666667)"><circle cx="3" cy="3" r="3"></circle></g>
<g transform="translate(836,748) scale(3.7766666666667)"><circle cx="3" cy="3" r="3"></circle></g>
<g transform="translate(858,748) scale(3.7766666666667)"><circle cx="3" cy="3" r="3"></circle></g>
<g transform="translate(880,748) scale(3.7766666666667)"><circle cx="3" cy="3" r="3"></circle></g>
<g transform="translate(902,748) scale(3.7766666666667)"><circle cx="3" cy="3" r="3"></circle></g>
<g transform="translate(220,770) scale(3.7766666666667)"><circle cx="3" cy="3" r="3"></circle></g>
<g transform="translate(264,770) scale(3.7766666666667)"><circle cx="3" cy="3" r="3"></circle></g>
<g transform="translate(286,770) scale(3.7766666666667)"><circle cx="3" cy="3" r="3"></circle></g>
<g transform="translate(308,770) scale(3.7766666666667)"><circle cx="3" cy="3" r="3"></circle></g>
<g transform="translate(352,770) scale(3.7766666666667)"><circle cx="3" cy="3" r="3"></circle></g>
<g transform="translate(396,770) scale(3.7766666666667)"><circle cx="3" cy="3" r="3"></circle></g>
<g transform="translate(418,770) scale(3.7766666666667)"><circle cx="3" cy="3" r="3"></circle></g>
<g transform="translate(484,770) scale(3.7766666666667)"><circle cx="3" cy="3" r="3"></circle></g>
<g transform="translate(506,770) scale(3.7766666666667)"><circle cx="3" cy="3" r="3"></circle></g>
<g transform="translate(550,770) scale(3.7766666666667)"><circle cx="3" cy="3" r="3"></circle></g>
<g transform="translate(594,770) scale(3.7766666666667)"><circle cx="3" cy="3" r="3"></circle></g>
<g transform="translate(616,770) scale(3.7766666666667)"><circle cx="3" cy="3" r="3"></circle></g>
<g transform="translate(660,770) scale(3.7766666666667)"><circle cx="3" cy="3" r="3"></circle></g>
<g transform="translate(704,770) scale(3.7766666666667)"><circle cx="3" cy="3" r="3"></circle></g>
<g transform="translate(726,770) scale(3.7766666666667)"><circle cx="3" cy="3" r="3"></circle></g>
<g transform="translate(748,770) scale(3.7766666666667)"><circle cx="3" cy="3" r="3"></circle></g>
<g transform="translate(836,770) scale(3.7766666666667)"><circle cx="3" cy="3" r="3"></circle></g>
<g transform="translate(858,770) scale(3.7766666666667)"><circle cx="3" cy="3" r="3"></circle></g>
<g transform="translate(880,770) scale(3.7766666666667)"><circle cx="3" cy="3" r="3"></circle></g>
<g transform="translate(902,770) scale(3.7766666666667)"><circle cx="3" cy="3" r="3"></circle></g>
<g transform="translate(924,770) scale(3.7766666666667)"><circle cx="3" cy="3" r="3"></circle></g>
<g transform="translate(330,792) scale(3.7766666666667)"><circle cx="3" cy="3" r="3"></circle></g>
<g transform="translate(352,792) scale(3.7766666666667)"><circle cx="3" cy="3" r="3"></circle></g>
<g transform="translate(440,792) scale(3.7766666666667)"><circle cx="3" cy="3" r="3"></circle></g>
<g transform="translate(484,792) scale(3.7766666666667)"><circle cx="3" cy="3" r="3"></circle></g>
<g transform="translate(506,792) scale(3.7766666666667)"><circle cx="3" cy="3" r="3"></circle></g>
<g transform="translate(528,792) scale(3.7766666666667)"><circle cx="3" cy="3" r="3"></circle></g>
<g transform="translate(550,792) scale(3.7766666666667)"><circle cx="3" cy="3" r="3"></circle></g>
<g transform="translate(594,792) scale(3.7766666666667)"><circle cx="3" cy="3" r="3"></circle></g>
<g transform="translate(616,792) scale(3.7766666666667)"><circle cx="3" cy="3" r="3"></circle></g>
<g transform="translate(638,792) scale(3.7766666666667)"><circle cx="3" cy="3" r="3"></circle></g>
<g transform="translate(660,792) scale(3.7766666666667)"><circle cx="3" cy="3" r="3"></circle></g>
<g transform="translate(704,792) scale(3.7766666666667)"><circle cx="3" cy="3" r="3"></circle></g>
<g transform="translate(726,792) scale(3.7766666666667)"><circle cx="3" cy="3" r="3"></circle></g>
<g transform="translate(748,792) scale(3.7766666666667)"><circle cx="3" cy="3" r="3"></circle></g>
<g transform="translate(792,792) scale(3.7766666666667)"><circle cx="3" cy="3" r="3"></circle></g>
<g transform="translate(836,792) scale(3.7766666666667)"><circle cx="3" cy="3" r="3"></circle></g>
<g transform="translate(880,792) scale(3.7766666666667)"><circle cx="3" cy="3" r="3"></circle></g>
<g transform="translate(242,814) scale(3.7766666666667)"><circle cx="3" cy="3" r="3"></circle></g>
<g transform="translate(264,814) scale(3.7766666666667)"><circle cx="3" cy="3" r="3"></circle></g>
<g transform="translate(330,814) scale(3.7766666666667)"><circle cx="3" cy="3" r="3"></circle></g>
<g transform="translate(374,814) scale(3.7766666666667)"><circle cx="3" cy="3" r="3"></circle></g>
<g transform="translate(396,814) scale(3.7766666666667)"><circle cx="3" cy="3" r="3"></circle></g>
<g transform="translate(418,814) scale(3.7766666666667)"><circle cx="3" cy="3" r="3"></circle></g>
<g transform="translate(440,814) scale(3.7766666666667)"><circle cx="3" cy="3" r="3"></circle></g>
<g transform="translate(462,814) scale(3.7766666666667)"><circle cx="3" cy="3" r="3"></circle></g>
<g transform="translate(528,814) scale(3.7766666666667)"><circle cx="3" cy="3" r="3"></circle></g>
<g transform="translate(638,814) scale(3.7766666666667)"><circle cx="3" cy="3" r="3"></circle></g>
<g transform="translate(660,814) scale(3.7766666666667)"><circle cx="3" cy="3" r="3"></circle></g>
<g transform="translate(726,814) scale(3.7766666666667)"><circle cx="3" cy="3" r="3"></circle></g>
<g transform="translate(748,814) scale(3.7766666666667)"><circle cx="3" cy="3" r="3"></circle></g>
<g transform="translate(836,814) scale(3.7766666666667)"><circle cx="3" cy="3" r="3"></circle></g>
<g transform="translate(858,814) scale(3.7766666666667)"><circle cx="3" cy="3" r="3"></circle></g>
<g transform="translate(902,814) scale(3.7766666666667)"><circle cx="3" cy="3" r="3"></circle></g>
<g transform="translate(220,836) scale(3.7766666666667)"><circle cx="3" cy="3" r="3"></circle></g>
<g transform="translate(264,836) scale(3.7766666666667)"><circle cx="3" cy="3" r="3"></circle></g>
<g transform="translate(374,836) scale(3.7766666666667)"><circle cx="3" cy="3" r="3"></circle></g>
<g transform="translate(396,836) scale(3.7766666666667)"><circle cx="3" cy="3" r="3"></circle></g>
<g transform="translate(418,836) scale(3.7766666666667)"><circle cx="3" cy="3" r="3"></circle></g>
<g transform="translate(506,836) scale(3.7766666666667)"><circle cx="3" cy="3" r="3"></circle></g>
<g transform="translate(550,836) scale(3.7766666666667)"><circle cx="3" cy="3" r="3"></circle></g>
<g transform="translate(572,836) scale(3.7766666666667)"><circle cx="3" cy="3" r="3"></circle></g>
<g transform="translate(638,836) scale(3.7766666666667)"><circle cx="3" cy="3" r="3"></circle></g>
<g transform="translate(660,836) scale(3.7766666666667)"><circle cx="3" cy="3" r="3"></circle></g>
<g transform="translate(704,836) scale(3.7766666666667)"><circle cx="3" cy="3" r="3"></circle></g>
<g transform="translate(748,836) scale(3.7766666666667)"><circle cx="3" cy="3" r="3"></circle></g>
<g transform="translate(770,836) scale(3.7766666666667)"><circle cx="3" cy="3" r="3"></circle></g>
<g transform="translate(792,836) scale(3.7766666666667)"><circle cx="3" cy="3" r="3"></circle></g>
<g transform="translate(814,836) scale(3.7766666666667)"><circle cx="3" cy="3" r="3"></circle></g>
<g transform="translate(836,836) scale(3.7766666666667)"><circle cx="3" cy="3" r="3"></circle></g>
<g transform="translate(858,836) scale(3.7766666666667)"><circle cx="3" cy="3" r="3"></circle></g>
<g transform="translate(880,836) scale(3.7766666666667)"><circle cx="3" cy="3" r="3"></circle></g>
<g transform="translate(902,836) scale(3.7766666666667)"><circle cx="3" cy="3" r="3"></circle></g>
<g transform="translate(220,858) scale(3.7766666666667)"><circle cx="3" cy="3" r="3"></circle></g>
<g transform="translate(308,858) scale(3.7766666666667)"><circle cx="3" cy="3" r="3"></circle></g>
<g transform="translate(396,858) scale(3.7766666666667)"><circle cx="3" cy="3" r="3"></circle></g>
<g transform="translate(418,858) scale(3.7766666666667)"><circle cx="3" cy="3" r="3"></circle></g>
<g transform="translate(440,858) scale(3.7766666666667)"><circle cx="3" cy="3" r="3"></circle></g>
<g transform="translate(484,858) scale(3.7766666666667)"><circle cx="3" cy="3" r="3"></circle></g>
<g transform="translate(528,858) scale(3.7766666666667)"><circle cx="3" cy="3" r="3"></circle></g>
<g transform="translate(550,858) scale(3.7766666666667)"><circle cx="3" cy="3" r="3"></circle></g>
<g transform="translate(572,858) scale(3.7766666666667)"><circle cx="3" cy="3" r="3"></circle></g>
<g transform="translate(616,858) scale(3.7766666666667)"><circle cx="3" cy="3" r="3"></circle></g>
<g transform="translate(660,858) scale(3.7766666666667)"><circle cx="3" cy="3" r="3"></circle></g>
<g transform="translate(748,858) scale(3.7766666666667)"><circle cx="3" cy="3" r="3"></circle></g>
<g transform="translate(770,858) scale(3.7766666666667)"><circle cx="3" cy="3" r="3"></circle></g>
<g transform="translate(814,858) scale(3.7766666666667)"><circle cx="3" cy="3" r="3"></circle></g>
<g transform="translate(858,858) scale(3.7766666666667)"><circle cx="3" cy="3" r="3"></circle></g>
<g transform="translate(880,858) scale(3.7766666666667)"><circle cx="3" cy="3" r="3"></circle></g>
<g transform="translate(902,858) scale(3.7766666666667)"><circle cx="3" cy="3" r="3"></circle></g>
<g transform="translate(924,858) scale(3.7766666666667)"><circle cx="3" cy="3" r="3"></circle></g>
<g transform="translate(220,880) scale(3.7766666666667)"><circle cx="3" cy="3" r="3"></circle></g>
<g transform="translate(242,880) scale(3.7766666666667)"><circle cx="3" cy="3" r="3"></circle></g>
<g transform="translate(264,880) scale(3.7766666666667)"><circle cx="3" cy="3" r="3"></circle></g>
<g transform="translate(330,880) scale(3.7766666666667)"><circle cx="3" cy="3" r="3"></circle></g>
<g transform="translate(352,880) scale(3.7766666666667)"><circle cx="3" cy="3" r="3"></circle></g>
<g transform="translate(396,880) scale(3.7766666666667)"><circle cx="3" cy="3" r="3"></circle></g>
<g transform="translate(418,880) scale(3.7766666666667)"><circle cx="3" cy="3" r="3"></circle></g>
<g transform="translate(484,880) scale(3.7766666666667)"><circle cx="3" cy="3" r="3"></circle></g>
<g transform="translate(550,880) scale(3.7766666666667)"><circle cx="3" cy="3" r="3"></circle></g>
<g transform="translate(572,880) scale(3.7766666666667)"><circle cx="3" cy="3" r="3"></circle></g>
<g transform="translate(638,880) scale(3.7766666666667)"><circle cx="3" cy="3" r="3"></circle></g>
<g transform="translate(682,880) scale(3.7766666666667)"><circle cx="3" cy="3" r="3"></circle></g>
<g transform="translate(726,880) scale(3.7766666666667)"><circle cx="3" cy="3" r="3"></circle></g>
<g transform="translate(748,880) scale(3.7766666666667)"><circle cx="3" cy="3" r="3"></circle></g>
<g transform="translate(770,880) scale(3.7766666666667)"><circle cx="3" cy="3" r="3"></circle></g>
<g transform="translate(792,880) scale(3.7766666666667)"><circle cx="3" cy="3" r="3"></circle></g>
<g transform="translate(814,880) scale(3.7766666666667)"><circle cx="3" cy="3" r="3"></circle></g>
<g transform="translate(836,880) scale(3.7766666666667)"><circle cx="3" cy="3" r="3"></circle></g>
<g transform="translate(858,880) scale(3.7766666666667)"><circle cx="3" cy="3" r="3"></circle></g>
<g transform="translate(880,880) scale(3.7766666666667)"><circle cx="3" cy="3" r="3"></circle></g>
<g transform="translate(902,880) scale(3.7766666666667)"><circle cx="3" cy="3" r="3"></circle></g>
<g transform="translate(286,902) scale(3.7766666666667)"><circle cx="3" cy="3" r="3"></circle></g>
<g transform="translate(352,902) scale(3.7766666666667)"><circle cx="3" cy="3" r="3"></circle></g>
<g transform="translate(506,902) scale(3.7766666666667)"><circle cx="3" cy="3" r="3"></circle></g>
<g transform="translate(528,902) scale(3.7766666666667)"><circle cx="3" cy="3" r="3"></circle></g>
<g transform="translate(550,902) scale(3.7766666666667)"><circle cx="3" cy="3" r="3"></circle></g>
<g transform="translate(638,902) scale(3.7766666666667)"><circle cx="3" cy="3" r="3"></circle></g>
<g transform="translate(660,902) scale(3.7766666666667)"><circle cx="3" cy="3" r="3"></circle></g>
<g transform="translate(704,902) scale(3.7766666666667)"><circle cx="3" cy="3" r="3"></circle></g>
<g transform="translate(748,902) scale(3.7766666666667)"><circle cx="3" cy="3" r="3"></circle></g>
<g transform="translate(770,902) scale(3.7766666666667)"><circle cx="3" cy="3" r="3"></circle></g>
<g transform="translate(792,902) scale(3.7766666666667)"><circle cx="3" cy="3" r="3"></circle></g>
<g transform="translate(836,902) scale(3.7766666666667)"><circle cx="3" cy="3" r="3"></circle></g>
<g transform="translate(902,902) scale(3.7766666666667)"><circle cx="3" cy="3" r="3"></circle></g>
<g transform="translate(242,924) scale(3.7766666666667)"><circle cx="3" cy="3" r="3"></circle></g>
<g transform="translate(264,924) scale(3.7766666666667)"><circle cx="3" cy="3" r="3"></circle></g>
<g transform="translate(308,924) scale(3.7766666666667)"><circle cx="3" cy="3" r="3"></circle></g>
<g transform="translate(330,924) scale(3.7766666666667)"><circle cx="3" cy="3" r="3"></circle></g>
<g transform="translate(440,924) scale(3.7766666666667)"><circle cx="3" cy="3" r="3"></circle></g>
<g transform="translate(550,924) scale(3.7766666666667)"><circle cx="3" cy="3" r="3"></circle></g>
<g transform="translate(616,924) scale(3.7766666666667)"><circle cx="3" cy="3" r="3"></circle></g>
<g transform="translate(638,924) scale(3.7766666666667)"><circle cx="3" cy="3" r="3"></circle></g>
<g transform="translate(682,924) scale(3.7766666666667)"><circle cx="3" cy="3" r="3"></circle></g>
<g transform="translate(792,924) scale(3.7766666666667)"><circle cx="3" cy="3" r="3"></circle></g>
<g transform="translate(814,924) scale(3.7766666666667)"><circle cx="3" cy="3" r="3"></circle></g>
<g transform="translate(836,924) scale(3.7766666666667)"><circle cx="3" cy="3" r="3"></circle></g>
</g></g></mask></defs>
    <rect width="990" height="990" fill="#ffffff" x="0" y="0"></rect>
    <rect x="0" y="0" width="990" height="990" mask="url(#qrmask)" fill="#000000"></rect>
    <g><g transform="translate(44,44)" fill="#000000"><g transform="scale(11)"><path d="M0,0v14h14V0H0z M12,12H2V2h10V12z"></path></g></g>
        <g transform="translate(88,88)" fill="#000000"><g transform="scale(11)"><rect width="6" height="6"></rect></g></g>
        <g transform="translate(792,44)" fill="#000000"><g transform="scale(11)"><path d="M0,0v14h14V0H0z M12,12H2V2h10V12z"></path></g></g>
        <g transform="translate(836,88)" fill="#000000"><g transform="scale(11)"><rect width="6" height="6"></rect></g></g>
        <g transform="translate(44,792)" fill="#000000"><g transform="scale(11)"><path d="M0,0v14h14V0H0z M12,12H2V2h10V12z"></path></g></g>
        <g transform="translate(88,836)" fill="#000000"><g transform="scale(11)"><rect width="6" height="6"></rect></g></g></g>
</svg>